<?xml version="1.0" encoding="utf-8"?>
<!-- Generator: Adobe Illustrator 23.0.2, SVG Export Plug-In . SVG Version: 6.00 Build 0)  -->
<svg version="1.1" id="Lag_1" xmlns:serif="http://www.serif.com/"
	 xmlns="http://www.w3.org/2000/svg" xmlns:xlink="http://www.w3.org/1999/xlink" x="0px" y="0px" viewBox="0 0 1041.7 1381.9"
	 style="enable-background:new 0 0 1041.7 1381.9;" xml:space="preserve">
<style type="text/css">
	.st0{fill:none;stroke:#C80000;stroke-width:5.669291e-02;stroke-linecap:round;stroke-linejoin:round;stroke-miterlimit:1.5;}
	.st1{fill:none;stroke:#C80000;stroke-width:5.669291e-02;stroke-miterlimit:10;}
</style>
<path class="st0" d="M898.6,453.5v-22.4h8.5v-22.4h-8.5v-22.4h8.5V364h-8.5v-22.4h8.5v-22.4h-8.5v-22.4h8.5v-22.4h-8.5v-22.4h8.5
	v-22.4h-8.5v-22.4h8.5V185h-8.5v-22.4h8.5v-22.4h-8.5v-22.4h8.5V95.5h-8.5V73.1h8.5V50.7h-8.5V28.4h-13.9v8.5h-22.4v-8.5H840v8.5
	h-22.4v-8.5h-22.4v8.5h-22.4v-8.5h-22.4v8.5h-22.4v-8.5h-22.4v8.5h-22.4v-8.5h-22.4v8.5h-22.4v-8.5h-22.4v8.5h-22.4v-8.5h-22.4v8.5
	H549v-8.5h-22.4v8.5h-22.4v-8.5h-22.4v22.4h8.5v22.4h-8.5v22.4h8.5v22.4h-8.5v22.4h8.5v22.4h-8.5V185h8.5v22.4h-8.5v22.4h8.5v22.4
	h-8.5v22.4h8.5v22.4h-8.5v22.4h8.5v22.4h-8.5V364h8.5v22.4h-8.5v22.4h8.5v22.4h-8.5v22.4h22.4V445h22.4v8.5H549V445h22.4v8.5h22.4
	V445h22.4v8.5h22.4V445h22.4v8.5h22.4V445h22.4v8.5h22.4V445h22.4v8.5h22.4V445h22.4v8.5h22.4V445H840v8.5h22.4V445h22.4v8.5H898.6z
	"/>
<path class="st0" d="M445,907.1v-22.4h8.5v-22.4H445V840h8.5v-22.4H445v-22.4h8.5v-22.4H445v-22.4h8.5v-22.4H445v-22.4h8.5v-22.4
	H445v-22.4h8.5v-22.4H445v-22.4h8.5v-22.4H445v-22.4h8.5V549H445v-22.4h8.5v-22.4H445v-22.4h-13.9v8.5h-22.4v-8.5h-22.4v8.5H364
	v-8.5h-22.4v8.5h-22.4v-8.5h-22.4v8.5h-22.4v-8.5h-22.4v8.5h-22.4v-8.5h-22.4v8.5H185v-8.5h-22.4v8.5h-22.4v-8.5h-22.4v8.5H95.5
	v-8.5H73.1v8.5H50.7v-8.5H28.4v22.4h8.5v22.4h-8.5V549h8.5v22.4h-8.5v22.4h8.5v22.4h-8.5v22.4h8.5v22.4h-8.5v22.4h8.5v22.4h-8.5
	v22.4h8.5v22.4h-8.5v22.4h8.5v22.4h-8.5v22.4h8.5V840h-8.5v22.4h8.5v22.4h-8.5v22.4h22.4v-8.5h22.4v8.5h22.4v-8.5h22.4v8.5h22.4
	v-8.5h22.4v8.5H185v-8.5h22.4v8.5h22.4v-8.5h22.4v8.5h22.4v-8.5h22.4v8.5h22.4v-8.5h22.4v8.5H364v-8.5h22.4v8.5h22.4v-8.5h22.4v8.5
	H445z"/>
<path class="st0" d="M898.6,898.6v-13.9h8.5v-22.4h-8.5V840h8.5v-22.4h-8.5v-22.4h8.5v-22.4h-8.5v-22.4h8.5v-22.4h-8.5v-22.4h8.5
	v-22.4h-8.5v-22.4h8.5v-22.4h-8.5v-22.4h8.5v-22.4h-8.5v-22.4h8.5V549h-8.5v-22.4h8.5v-22.4h-8.5v-13.9h-13.9v-8.5h-22.4v8.5H840
	v-8.5h-22.4v8.5h-22.4v-8.5h-22.4v8.5h-22.4v-8.5h-22.4v8.5h-22.4v-8.5h-22.4v8.5h-22.4v-8.5h-22.4v8.5h-22.4v-8.5h-22.4v8.5h-22.4
	v-8.5H549v8.5h-22.4v-8.5h-22.4v8.5h-13.9v13.9h-8.5v22.4h8.5V549h-8.5v22.4h8.5v22.4h-8.5v22.4h8.5v22.4h-8.5v22.4h8.5v22.4h-8.5
	v22.4h8.5v22.4h-8.5v22.4h8.5v22.4h-8.5v22.4h8.5v22.4h-8.5V840h8.5v22.4h-8.5v22.4h8.5v13.9h13.9v8.5h22.4v-8.5H549v8.5h22.4v-8.5
	h22.4v8.5h22.4v-8.5h22.4v8.5h22.4v-8.5h22.4v8.5h22.4v-8.5h22.4v8.5h22.4v-8.5h22.4v8.5h22.4v-8.5h22.4v8.5H840v-8.5h22.4v8.5h22.4
	v-8.5H898.6z"/>
<path class="st0" d="M445,1356.5v-22.4h8.5v-22.4H445v-22.4h8.5V1267H445v-22.4h8.5v-22.4H445v-22.4h8.5v-22.4H445v-22.4h8.5v-22.4
	H445v-22.4h8.5V1088H445v-22.4h8.5v-22.4H445v-22.4h8.5v-22.4H445v-22.4h8.5v-22.4H445v-22.4h-13.9v8.5h-22.4v-8.5h-22.4v8.5H364
	v-8.5h-22.4v8.5h-22.4v-8.5h-22.4v8.5h-22.4v-8.5h-22.4v8.5h-22.4v-8.5h-22.4v8.5H185v-8.5h-22.4v8.5h-22.4v-8.5h-22.4v8.5H95.5
	v-8.5H73.1v8.5H50.7v-8.5H28.3v22.4h8.5v22.4h-8.5v22.4h8.5v22.4h-8.5v22.4h8.5v22.4h-8.5v22.4h8.5v22.4h-8.5v22.4h8.5v22.4h-8.5
	v22.4h8.5v22.4h-8.5v22.4h8.5v22.4h-8.5v22.4h8.5v22.4h-8.5v22.4h8.5v22.4h-8.5v22.4h22.4v-8.5h22.4v8.5h22.4v-8.5h22.4v8.5h22.4
	v-8.5h22.4v8.5H185v-8.5h22.4v8.5h22.4v-8.5h22.4v8.5h22.4v-8.5h22.4v8.5h22.4v-8.5h22.4v8.5H364v-8.5h22.4v8.5h22.4v-8.5h22.4v8.5
	H445z"/>
<path class="st0" d="M898.6,1360.6v-22.4h8.5v-22.4h-8.5v-22.4h8.5v-22.4h-8.5v-22.4h8.5v-22.4h-8.5V1204h8.5v-22.4h-8.5v-22.4h8.5
	v-22.4h-8.5v-22.4h8.5v-22.4h-8.5v-22.4h8.5v-22.4h-8.5v-22.4h8.5v-22.4h-8.5v-22.4h8.5v-22.4h-8.5v-22.4h-13.9v8.5h-22.4v-8.5H840
	v8.5h-22.4v-8.5h-22.4v8.5h-22.4v-8.5h-22.4v8.5h-22.4v-8.5h-22.4v8.5h-22.4v-8.5h-22.4v8.5h-22.4v-8.5h-22.4v8.5h-22.4v-8.5h-22.4
	v8.5H549v-8.5h-22.4v8.5h-22.4v-8.5h-22.4v22.4h8.5v22.4h-8.5v22.4h8.5v22.4h-8.5v22.4h8.5v22.4h-8.5v22.4h8.5v22.4h-8.5v22.4h8.5
	v22.4h-8.5v22.4h8.5v22.4h-8.5v22.4h8.5v22.4h-8.5v22.4h8.5v22.4h-8.5v22.4h8.5v22.4h-8.5v22.4h22.4v-8.5h22.4v8.5H549v-8.5h22.4
	v8.5h22.4v-8.5h22.4v8.5h22.4v-8.5h22.4v8.5h22.4v-8.5h22.4v8.5h22.4v-8.5h22.4v8.5h22.4v-8.5h22.4v8.5h22.4v-8.5H840v8.5h22.4v-8.5
	h22.4v8.5H898.6z"/>
<path class="st0" d="M898.6,1805.7v-13.9h8.5v-22.4h-8.5V1747h8.5v-22.4h-8.5v-22.4h8.5v-22.4h-8.5v-22.4h8.5v-22.4h-8.5v-22.4h8.5
	v-22.4h-8.5V1568h8.5v-22.4h-8.5v-22.4h8.5v-22.4h-8.5v-22.4h8.5v-22.4h-8.5v-22.4h8.5v-22.4h-8.5v-13.9h-13.9v-8.5h-22.4v8.5H840
	v-8.5h-22.4v8.5h-22.4v-8.5h-22.4v8.5h-22.4v-8.5h-22.4v8.5h-22.4v-8.5h-22.4v8.5h-22.4v-8.5h-22.4v8.5h-22.4v-8.5h-22.4v8.5h-22.4
	v-8.5H549v8.5h-22.4v-8.5h-22.4v8.5h-13.9v13.9h-8.5v22.4h8.5v22.4h-8.5v22.4h8.5v22.4h-8.5v22.4h8.5v22.4h-8.5v22.4h8.5v22.4h-8.5
	v22.4h8.5v22.4h-8.5v22.4h8.5v22.4h-8.5v22.4h8.5v22.4h-8.5v22.4h8.5v22.4h-8.5v22.4h8.5v13.9h13.9v8.5h22.4v-8.5H549v8.5h22.4v-8.5
	h22.4v8.5h22.4v-8.5h22.4v8.5h22.4v-8.5h22.4v8.5h22.4v-8.5h22.4v8.5h22.4v-8.5h22.4v8.5h22.4v-8.5h22.4v8.5H840v-8.5h22.4v8.5h22.4
	v-8.5H898.6z"/>
<g>
	<path class="st1" d="M603.7,627.9c1.3-1.3,2.7-2.5,4.1-3.7l-75.1-75.1V667h54.1C587.2,652.8,592.8,638.7,603.7,627.9z"/>
	<path class="st1" d="M612.7,718.7l-9.1-9.1c-5.3-5.3-9.3-11.3-12.1-17.7h-58.9v141.7l97.5-97.5L612.7,718.7z"/>
	<path class="st1" d="M785.3,709.6l-9.1,9.1l-17.8,17.8l97.8,97.8V691.9h-58.9C794.6,698.3,790.6,704.4,785.3,709.6z"/>
	<path class="st1" d="M785.3,627.9c10.9,10.9,16.5,24.9,16.9,39.2h54.1V548.2l-75.6,75.6C782.3,625,783.8,626.4,785.3,627.9z"/>
	<path class="st1" d="M681.2,624v-94.9H547.8l83.4,83.4C648.3,608.5,666.9,612.3,681.2,624z"/>
	<path class="st1" d="M757,612.3l83.2-83.2H706v96.4C720.3,612.8,739.4,608.4,757,612.3z"/>
	<polygon class="st1" points="705.8,789.1 705.8,852.8 839.7,852.8 740.9,754 	"/>
	<polygon class="st1" points="647.7,753.7 548.6,852.8 681,852.8 681,786.9 	"/>
	<path class="st1" d="M750.3,709.1l-5.7,5.7L693.4,766l-51.2-51.2l-5.7-5.7c-14.2-14.2-14.2-37.1,0-51.2c14.2-14.2,37.1-14.2,51.2,0
		l5.7,5.7l5.7-5.7c14.2-14.2,37.1-14.2,51.2,0C764.5,672,764.5,694.9,750.3,709.1z"/>
</g>
</svg>
